<?xml version="1.0" encoding="utf-8"?>
<!-- Generator: Adobe Illustrator 19.2.1, SVG Export Plug-In . SVG Version: 6.00 Build 0)  -->
<svg version="1.1" id="Layer_1" xmlns="http://www.w3.org/2000/svg" xmlns:xlink="http://www.w3.org/1999/xlink" x="0px" y="0px"
	 viewBox="0 0 48 48" style="enable-background:new 0 0 48 48;" xml:space="preserve">
<style type="text/css">
	.st0{fill:none;}
	.st1{fill:#2680FF;}
</style>
<path class="st0" d="M0-0.2h48v48H0V-0.2z"/>
<path class="st1" d="M14,10.2h20v4h4v-8c0-2.2-1.8-4-4-4l-20,0c-2.2,0-4,1.8-4,4v8h4V10.2z M30.8,33.3l9.2-9.2L30.8,15L28,17.8
	l6.3,6.3L28,30.5L30.8,33.3z M20,30.5l-6.3-6.3l6.3-6.4L17.2,15L8,24.2l9.2,9.2L20,30.5z M34,38.2H14v-4h-4v8c0,2.2,1.8,4,4,4h20
	c2.2,0,4-1.8,4-4v-8h-4V38.2z"/>
</svg>
