<svg id="Layer_1" data-name="Layer 1" xmlns="http://www.w3.org/2000/svg" viewBox="0 0 64 61.78"><defs><style>.cls-1{fill:#fdfdfd;}.cls-2{fill:#267ffd;}.cls-3{fill:#58595b;}.cls-4{fill:#fefefe;}</style></defs><title>Wallet</title><path class="cls-1" d="M365.52,614.89H333.75c-0.2,0-.22-0.06-0.22-0.23q0-30.66,0-61.33c0-.2.06-0.22,0.23-0.22H397.3c0.2,0,.22.06,0.22,0.23q0,30.66,0,61.33c0,0.2-.06.22-0.23,0.22H365.52Z" transform="translate(-333.53 -553.11)"/><path class="cls-2" d="M365.5,567.18H395a0.62,0.62,0,0,1,.64.67q0,1.91,0,3.81,0,5.42,0,10.84c0,0.21-.05.27-0.27,0.27h-20a1.84,1.84,0,0,0-2,2c0,3.59,0,7.18,0,10.78a1.91,1.91,0,0,0,2,1.95c6.67,0,13.35,0,20,0,0.22,0,.28,0,0.28.27q0,7.29,0,14.59a0.65,0.65,0,0,1-.73.74H336.22a1.31,1.31,0,0,1-.37,0,0.61,0.61,0,0,1-.45-0.56c0-.07,0-0.15,0-0.22q0-22.12,0-44.23a0.73,0.73,0,0,1,.81-0.8H365.5Z" transform="translate(-333.53 -553.11)"/><path class="cls-3" d="M385.42,584.61h10c0.2,0,.24,0,0.24.24q0,5.24,0,10.48c0,0.21-.07.25-0.26,0.25H375.48c-0.2,0-.26,0-0.26-0.25q0-5.23,0-10.46c0-.2,0-0.26.25-0.26h10Z" transform="translate(-333.53 -553.11)"/><path class="cls-3" d="M343.72,565.28l2-.58L361,560.24l16.24-4.74c0.18-.05.22,0,0.26,0.15q1.13,4.73,2.27,9.46c0.06,0.24-.07.2-0.21,0.2h-35.8v0Z" transform="translate(-333.53 -553.11)"/><path class="cls-3" d="M388.17,564.2h-5a0.23,0.23,0,0,1-.27-0.18q-0.89-2.79-1.79-5.57c-0.06-.19,0-0.22.16-0.25l3.56-.55c0.15,0,.17.07,0.21,0.16l2.08,4.22,1,2C388.12,564.07,388.14,564.12,388.17,564.2Z" transform="translate(-333.53 -553.11)"/><path class="cls-4" d="M383,590.09a2.46,2.46,0,1,1-2.45-2.47A2.46,2.46,0,0,1,383,590.09Z" transform="translate(-333.53 -553.11)"/></svg>